# xmcd CD database file
#
# Track frame offsets:
#	150
#	17717
#	33274
#	53525
#	71914
#	87971
#	104159
#	119100
#	140388
#	163685
#	177705
#	192125
#	213330
#	228975
#
# Disc length: 3208 seconds
#
# Revision: 1
# Processed by: cddbd v1.5.2PL0 Copyright (c) Steve Scherf et al.
# Submitted via: CDex 1.51
#
DISCID=cb0c860e
DTITLE=A.C. Reed - Junk Food
DYEAR=1900
DGENRE=Blues
TTITLE0=Junk Food
TTITLE1=Big Women
TTITLE2=Broke Music (with Albert Collins)
TTITLE3=I Got Mad (with Albert Collins)
TTITLE4=The President Plays
TTITLE5=Give It Up (Smoking)
TTITLE6=Florine
TTITLE7=Lonely Man
TTITLE8=Roadhouse Blues
TTITLE9=2 Women In A Pick-Up
TTITLE10=Party With Y'All
TTITLE11=You're Going To Miss Me
TTITLE12=Fed Up
TTITLE13=Last Time Around
EXTD=
EXTT0=
EXTT1=
EXTT2=
EXTT3=
EXTT4=
EXTT5=
EXTT6=
EXTT7=
EXTT8=
EXTT9=
EXTT10=
EXTT11=
EXTT12=
EXTT13=
PLAYORDER=
